<?xml version="1.0" encoding="UTF-8"?>
<svg id="Calque_1" data-name="Calque 1" xmlns="http://www.w3.org/2000/svg" viewBox="0 0 240.94 155.91">
  <defs>
    <style>
      .cls-1 {
        fill: #06070b;
      }
    </style>
  </defs>
  <g>
    <path class="cls-1" d="M53.25,100.89h14.13l4.18,19.66h-1.58l4.12-19.66h14.13l-10.79,45.2h-13.84l-10.34-45.2Z"/>
    <path class="cls-1" d="M98.56,143.54c-3.54-2-6.34-4.75-8.39-8.28-2.05-3.52-3.08-7.45-3.08-11.78s1.03-8.26,3.08-11.78c2.05-3.52,4.85-6.28,8.39-8.28,3.54-2,7.4-2.99,11.58-2.99s8.04,1,11.58,2.99c3.54,2,6.34,4.76,8.39,8.28,2.05,3.52,3.08,7.45,3.08,11.78s-1.03,8.26-3.08,11.78c-2.05,3.52-4.85,6.28-8.39,8.28-3.54,2-7.4,2.99-11.58,2.99s-8.04-1-11.58-2.99ZM113.62,130.77c1.04-.75,1.84-1.77,2.43-3.05.58-1.28.88-2.69.88-4.24s-.29-2.97-.88-4.27c-.58-1.3-1.39-2.33-2.43-3.08-1.04-.75-2.19-1.13-3.47-1.13s-2.43.38-3.45,1.13c-1.02.75-1.82,1.78-2.4,3.08-.58,1.3-.88,2.72-.88,4.27s.28,2.96.85,4.24c.56,1.28,1.36,2.3,2.4,3.05,1.04.75,2.19,1.13,3.48,1.13s2.44-.38,3.47-1.13Z"/>
    <path class="cls-1" d="M136.02,100.89h14.69v45.2h-14.69v-45.2Z"/>
    <path class="cls-1" d="M167.66,114.56h-13.05v-13.67h33.73l-13.73,31.47h12.6v13.73h-33.67l14.13-31.53Z"/>
  </g>
  <path class="cls-1" d="M120.23,8.93C58.45,8.93,8.36,26.82,8.36,48.88c0,17.64,31.99,32.6,76.37,37.9,9.87,1.94,20.92,3.06,32.42,3.23h1.16c.17.01.35.01.52.01h0c.06,0,.13,0,.19,0h.26s.01,0,.01,0h.13c.09,0,.18,0,.27,0h1.05s.1,0,.15,0c.04,0,.08,0,.12,0h.13s.01,0,.01,0h.06s.2,0,.2,0c.07,0,.13,0,.19,0h0c.17,0,.35,0,.51,0h1.19c11.5-.18,22.55-1.3,32.42-3.24,44.38-5.3,76.36-20.26,76.36-37.9,0-22.06-50.08-39.95-111.87-39.95ZM120.77,87.64h-1.09c-8.22-.11-13.46-2.58-13.46-4.23s5.45-4.23,14-4.23,14,2.51,14,4.23-5.24,4.13-13.46,4.23ZM149.11,84.62c4.33-2.24,6.85-5.03,6.85-8.12,0-3.84-3.87-7.33-10.91-9.84-6.65-2.37-15.46-3.68-24.82-3.68s-18.17,1.31-24.82,3.68c-7.03,2.51-10.91,6.01-10.91,9.84,0,3.08,2.51,5.88,6.84,8.12-3.32-.77-6.43-1.67-9.25-2.7-9.24-3.38-14.54-7.87-14.54-12.32,0-9.78,24.12-18.04,52.67-18.04s52.67,8.26,52.67,18.04c0,4.45-5.3,8.94-14.54,12.32-2.82,1.03-5.93,1.94-9.25,2.7ZM163.69,84.97c3.44-.9,6.7-1.91,9.71-3.03,13.68-5.08,21.22-11.91,21.22-19.24s-7.9-14.49-22.23-19.61c-13.95-4.98-32.48-7.73-52.16-7.73s-38.21,2.74-52.16,7.73c-14.34,5.12-22.23,12.08-22.23,19.61s7.54,14.16,21.22,19.24c3.02,1.12,6.27,2.13,9.72,3.03-29.2-5.56-49.08-16.54-49.08-29.18,0-18.25,41.43-33.05,92.53-33.05s92.53,14.8,92.53,33.05c0,12.64-19.87,23.62-49.07,29.18Z"/>
</svg>